<?xml version="1.0" encoding="utf-8"?>
<!-- Generator: Adobe Illustrator 19.0.0, SVG Export Plug-In . SVG Version: 6.00 Build 0)  -->
<svg version="1.1" id="Layer_1" xmlns="http://www.w3.org/2000/svg" xmlns:xlink="http://www.w3.org/1999/xlink" x="0px" y="0px"
	 viewBox="0 0 100 100" style="enable-background:new 0 0 100 100;" xml:space="preserve">
<style type="text/css">
	.st0{fill:#252525;}
</style>
<g>
	<path class="st0" d="M91.8,7H86v6.1c0,3.3-2.9,5.9-6.3,5.9h-6.1c-3.3,0-5.7-2.5-5.7-5.9V7H31v6.1c0,3.3-2.4,5.9-5.8,5.9h-6.1
		c-3.3,0-6.2-2.5-6.2-5.9V7H7.1C3.7,7,1,9.8,1,13.1v78.7C1,95.2,3.7,98,7.1,98h84.8c3.3,0,6.2-2.8,6.2-6.2V13.1
		C98,9.8,95.2,7,91.8,7z M92,92H7V25h85V92z"/>
	<path class="st0" d="M21.5,13.1c2,0,3.5-1.6,3.5-3.6v-5c0-2-1.5-3.6-3.5-3.6S18,2.6,18,4.6v5C18,11.5,19.5,13.1,21.5,13.1z"/>
	<path class="st0" d="M76.5,13.1c2,0,3.5-1.6,3.5-3.6v-5c0-2-1.5-3.6-3.5-3.6S73,2.6,73,4.6v5C73,11.5,74.5,13.1,76.5,13.1z"/>
</g>
<path class="st0" d="M34.4,89.1L34.4,89.1c-1.6,0-2.9-1.3-2.9-2.9V31.4c0-1.6,1.3-2.9,2.9-2.9h0c1.6,0,2.9,1.3,2.9,2.9v54.8
	C37.3,87.8,36,89.1,34.4,89.1z"/>
<path class="st0" d="M64.7,89.1L64.7,89.1c-1.6,0-2.9-1.3-2.9-2.9V31.4c0-1.6,1.3-2.9,2.9-2.9h0c1.6,0,2.9,1.3,2.9,2.9v54.8
	C67.6,87.8,66.3,89.1,64.7,89.1z"/>
<path class="st0" d="M9.8,46.4L9.8,46.4c0-1.6,1.3-2.9,2.9-2.9h74.4c1.6,0,2.9,1.3,2.9,2.9v0c0,1.6-1.3,2.9-2.9,2.9H12.7
	C11.1,49.3,9.8,48,9.8,46.4z"/>
<path class="st0" d="M9.8,70.6L9.8,70.6c0-1.6,1.3-2.9,2.9-2.9h74.4c1.6,0,2.9,1.3,2.9,2.9l0,0c0,1.6-1.3,2.9-2.9,2.9H12.7
	C11.1,73.5,9.8,72.2,9.8,70.6z"/>
</svg>
