<?xml version="1.0" encoding="utf-8"?>
<!-- Generator: Adobe Illustrator 19.0.0, SVG Export Plug-In . SVG Version: 6.00 Build 0)  -->
<svg version="1.1" id="Layer_1" xmlns="http://www.w3.org/2000/svg" xmlns:xlink="http://www.w3.org/1999/xlink" x="0px" y="0px"
	 viewBox="0 0 100 100" style="enable-background:new 0 0 100 100;" xml:space="preserve">
<style type="text/css">
	.st0{fill:#00BBE3;}
</style>
<g>
	<path class="st0" d="M50,98.7C23.1,98.7,1.3,76.9,1.3,50S23.1,1.3,50,1.3S98.7,23.1,98.7,50S76.9,98.7,50,98.7z M50,5.3
		C25.3,5.3,5.3,25.3,5.3,50c0,24.7,20.1,44.7,44.7,44.7c24.7,0,44.7-20.1,44.7-44.7C94.7,25.3,74.7,5.3,50,5.3z"/>
</g>
<g>
	<path class="st0" d="M44.5,79.8L21.3,56.5l31.8-31.8l19.8,3.4L76.3,48L44.5,79.8z M25.3,56.5l19.2,19.2L73.2,47l-2.8-16.3L54,27.8
		L25.3,56.5z M62.6,43.2c-1.3,0-2.5-0.5-3.4-1.4c-1.9-1.9-1.9-4.9,0-6.7c0.9-0.9,2.1-1.4,3.4-1.4c1.3,0,2.5,0.5,3.4,1.4
		c1.9,1.9,1.9,4.9,0,6.7C65.1,42.7,63.9,43.2,62.6,43.2z M62.6,36.5c-0.5,0-1,0.2-1.3,0.6c-0.7,0.7-0.7,1.9,0,2.7
		c0.7,0.7,2,0.7,2.7,0c0.7-0.7,0.7-1.9,0-2.7C63.6,36.7,63.1,36.5,62.6,36.5z"/>
</g>
</svg>
